<?xml version="1.0" standalone="no"?>
<!DOCTYPE svg PUBLIC "-//W3C//DTD SVG 20010904//EN"
 "http://www.w3.org/TR/2001/REC-SVG-20010904/DTD/svg10.dtd">
<svg version="1.0" xmlns="http://www.w3.org/2000/svg"
 width="128.000000pt" height="128.000000pt" viewBox="0 0 128.000000 128.000000"
 preserveAspectRatio="xMidYMid meet">

<g transform="translate(0.000000,128.000000) scale(0.100000,-0.100000)"
fill="#000000" stroke="none">
<path d="M415 1274 c-206 -33 -349 -104 -396 -196 -19 -37 -20 -56 -17 -371
l3 -332 29 -60 c62 -126 211 -238 381 -287 73 -21 98 -23 290 -22 229 2 379
21 505 66 l65 23 3 388 c2 338 0 388 -13 393 -8 4 -44 -6 -80 -20 -36 -14 -70
-26 -75 -26 -6 0 -10 48 -10 120 0 131 -7 155 -57 201 -81 77 -233 118 -448
124 -82 2 -163 1 -180 -1z m378 -69 c130 -27 214 -71 243 -127 42 -81 -43
-135 -243 -153 l-73 -7 0 100 c0 55 -3 107 -6 116 -5 12 -21 16 -68 16 -136 0
-282 -38 -333 -86 l-33 -31 0 -118 0 -117 -27 7 c-87 20 -176 92 -193 154 -14
52 -13 70 10 106 46 74 176 131 365 159 59 9 282 -3 358 -19z m-123 -190 c0
-66 -3 -87 -15 -91 -8 -3 -61 1 -119 10 -105 15 -190 46 -200 71 -14 39 145
90 292 94 l42 1 0 -85z m380 -139 l0 -64 -67 -16 c-38 -9 -99 -21 -137 -26
-86 -13 -362 -13 -441 0 -33 5 -63 10 -67 10 -5 0 -8 34 -8 75 0 41 4 75 9 75
5 0 25 -7 45 -15 50 -21 214 -45 306 -45 146 0 250 20 358 69 1 0 2 -28 2 -63z
m-868 -100 c77 -34 180 -55 328 -67 197 -16 390 6 598 68 48 14 95 28 105 30
16 5 17 -16 17 -335 l0 -341 -62 -19 c-35 -11 -82 -23 -105 -27 l-43 -7 0 121
c0 102 -3 123 -16 128 -27 10 -34 -17 -34 -139 l0 -116 -47 -6 c-27 -3 -78 -8
-115 -11 l-67 -7 -3 129 c-3 120 -4 128 -23 128 -19 0 -20 -8 -23 -129 l-3
-129 -98 7 c-55 3 -106 9 -115 12 -13 5 -16 29 -18 132 -3 119 -4 127 -23 127
-19 0 -20 -8 -23 -122 l-3 -122 -52 20 c-101 39 -97 33 -97 172 0 131 -8 159
-37 141 -15 -9 -19 -30 -23 -115 l-5 -104 -32 32 -33 31 0 130 c0 101 -3 132
-15 142 -26 22 -35 0 -36 -93 -1 -86 -1 -90 -14 -62 -11 23 -14 87 -15 258 l0
229 39 -31 c22 -17 63 -42 93 -55z"/>
</g>
</svg>
